<?xml version="1.0" standalone="no"?>
<!DOCTYPE svg PUBLIC "-//W3C//DTD SVG 20010904//EN"
 "http://www.w3.org/TR/2001/REC-SVG-20010904/DTD/svg10.dtd">
<svg version="1.0" xmlns="http://www.w3.org/2000/svg"
 width="302.000000pt" height="263.000000pt" viewBox="0 0 302.000000 263.000000"
 preserveAspectRatio="xMidYMid meet">

<g transform="translate(0.000000,263.000000) scale(0.100000,-0.100000)"
fill="#000000" stroke="none">
<path d="M1618 1930 c-82 -15 -160 -96 -162 -169 -1 -32 2 -36 25 -39 23 -3
30 4 53 51 33 68 75 92 145 84 36 -4 52 -13 78 -41 38 -41 48 -72 38 -123 -8
-45 -60 -98 -105 -107 -18 -3 -295 -6 -616 -6 l-584 0 0 -35 0 -35 598 0 c390
0 610 4 635 11 52 14 112 71 133 124 59 157 -73 315 -238 285z"/>
<path d="M2301 1803 c-65 -23 -136 -98 -155 -162 -18 -60 -13 -79 20 -87 31
-8 48 7 62 55 15 49 79 108 127 117 74 14 159 -26 188 -89 39 -81 13 -174 -62
-224 l-34 -23 -1033 0 -1034 0 0 -45 0 -45 1038 0 1038 0 52 26 c92 46 141
127 142 232 0 34 -6 78 -14 96 -20 47 -82 114 -130 138 -54 27 -147 33 -205
11z"/>
<path d="M690 1115 l0 -34 608 -3 c566 -3 610 -4 635 -21 87 -57 87 -184 0
-238 -27 -17 -45 -20 -84 -17 -59 6 -93 33 -120 96 -19 44 -46 55 -68 28 -19
-23 7 -94 51 -138 133 -133 358 -41 358 147 0 94 -63 181 -147 204 -25 7 -249
11 -635 11 l-598 0 0 -35z"/>
</g>
</svg>
