<?xml version="1.0" standalone="no"?>
<!DOCTYPE svg PUBLIC "-//W3C//DTD SVG 20010904//EN"
 "http://www.w3.org/TR/2001/REC-SVG-20010904/DTD/svg10.dtd">
<svg version="1.0" xmlns="http://www.w3.org/2000/svg"
 width="840.000000pt" height="453.000000pt" viewBox="0 0 840.000000 453.000000"
 preserveAspectRatio="xMidYMid meet">

<g transform="translate(0.000000,453.000000) scale(0.100000,-0.100000)"
fill="#000000" stroke="none">
<path d="M5340 3977 l0 -146 56 -11 c224 -47 396 -158 464 -301 41 -87 53
-157 48 -275 -4 -90 -8 -110 -40 -176 -63 -133 -190 -246 -348 -311 -159 -66
-54 -61 -1490 -67 -1237 -5 -1307 -6 -1333 -23 -47 -30 -69 -75 -64 -130 5
-57 30 -95 78 -120 32 -16 112 -17 1399 -15 l1365 3 80 23 c483 136 752 624
603 1092 -104 328 -396 560 -745 595 l-73 7 0 -145z"/>
<path d="M3424 3246 c-47 -21 -77 -70 -78 -127 -1 -51 18 -86 68 -123 27 -21
36 -21 912 -24 860 -2 886 -2 929 17 62 27 87 70 82 139 -4 56 -27 91 -79 118
-39 20 -1787 20 -1834 0z"/>
<path d="M2305 2113 c-11 -3 -34 -16 -52 -29 -76 -57 -64 -188 20 -237 17 -9
356 -13 1542 -17 1672 -6 1540 -1 1703 -65 153 -61 287 -180 349 -312 29 -60
36 -88 40 -158 23 -355 -242 -571 -734 -601 l-113 -7 0 -145 0 -144 208 5
c241 5 312 20 457 92 379 189 562 622 433 1025 -88 276 -314 491 -603 572
l-80 23 -1575 1 c-866 1 -1584 0 -1595 -3z"/>
<path d="M3016 1540 c-93 -29 -128 -137 -71 -223 37 -58 28 -57 687 -57 681 0
670 1 753 -72 66 -58 95 -123 95 -213 0 -85 -24 -142 -83 -203 -42 -43 -124
-82 -172 -82 l-25 0 0 -146 0 -146 56 7 c295 37 513 278 514 567 0 94 -16 160
-60 253 -66 138 -185 242 -335 293 l-80 27 -625 2 c-344 1 -638 -2 -654 -7z"/>
</g>
</svg>
