<?xml version="1.0" standalone="no"?>
<!DOCTYPE svg PUBLIC "-//W3C//DTD SVG 20010904//EN"
 "http://www.w3.org/TR/2001/REC-SVG-20010904/DTD/svg10.dtd">
<svg version="1.0" xmlns="http://www.w3.org/2000/svg"
 width="840.000000pt" height="757.000000pt" viewBox="0 0 840.000000 757.000000"
 preserveAspectRatio="xMidYMid meet">

<g transform="translate(0.000000,757.000000) scale(0.100000,-0.100000)"
fill="#000000" stroke="none">
<path d="M5950 7159 c-688 -74 -1263 -426 -1510 -924 -93 -187 -130 -344 -130
-546 l0 -99 145 0 145 0 0 105 c0 268 100 488 319 705 233 232 517 373 911
452 105 21 141 23 420 23 335 0 380 -5 570 -66 465 -150 842 -523 1004 -995
65 -189 78 -272 83 -538 6 -269 -3 -366 -48 -536 -75 -288 -217 -529 -432
-737 -258 -249 -568 -388 -937 -422 -78 -8 -1089 -11 -3157 -11 l-3041 0 -32
-26 c-83 -71 -78 -179 12 -234 33 -20 51 -20 3178 -17 l3145 2 120 27 c248 56
457 144 655 277 446 299 738 769 815 1312 22 159 20 480 -5 652 -104 705 -595
1295 -1259 1514 -214 70 -312 84 -621 88 -146 2 -303 -1 -350 -6z"/>
<path d="M2605 6159 c-132 -19 -317 -92 -432 -170 -68 -46 -174 -154 -215
-219 -62 -98 -90 -184 -95 -290 -4 -83 -2 -99 16 -128 43 -68 123 -90 191 -53
49 26 70 67 79 158 10 96 40 160 110 228 89 88 212 151 351 181 100 21 284 18
362 -6 180 -55 335 -230 382 -430 18 -77 21 -265 5 -342 -40 -188 -177 -345
-359 -410 l-65 -23 -1320 -5 c-1252 -5 -1322 -6 -1348 -23 -89 -58 -86 -172 6
-241 27 -20 34 -20 1345 -20 1194 1 1323 2 1386 18 315 76 542 298 626 612 27
102 37 291 21 405 -30 206 -134 414 -273 546 -103 97 -268 181 -416 209 -80
15 -261 17 -357 3z"/>
<path d="M5545 5579 c-253 -37 -470 -197 -575 -424 -63 -136 -75 -197 -75
-392 0 -169 0 -172 25 -198 73 -78 168 -71 234 18 18 25 21 43 22 160 1 86 7
154 18 196 45 174 170 301 341 346 81 21 348 21 430 0 170 -43 315 -157 387
-302 42 -85 42 -86 46 -216 5 -149 -6 -213 -50 -302 -63 -126 -197 -240 -336
-287 l-67 -23 -2825 -5 -2825 -5 -31 -22 c-36 -26 -64 -78 -64 -118 0 -40 28
-92 64 -118 l31 -22 2830 0 c2665 0 2834 1 2898 18 225 57 412 187 533 369 87
130 123 246 131 424 13 282 -57 477 -236 654 -143 140 -316 225 -511 249 -98
13 -309 12 -395 0z"/>
<path d="M307 5149 c-45 -12 -67 -30 -88 -71 -37 -73 -11 -153 62 -190 31 -16
79 -18 569 -18 611 0 585 -3 629 83 31 63 23 107 -29 159 l-38 38 -108 2
c-282 4 -977 2 -997 -3z"/>
<path d="M282 2983 c-97 -48 -107 -182 -18 -246 l31 -22 3015 -5 c2849 -5
3018 -6 3075 -23 196 -58 344 -145 470 -278 134 -140 210 -281 246 -454 26
-127 26 -413 0 -540 -86 -417 -435 -738 -854 -784 -118 -13 -309 -14 -441 -1
-375 37 -696 316 -812 705 -24 82 -27 110 -33 325 -5 204 -8 240 -24 263 -59
90 -189 87 -248 -5 -19 -32 -20 -44 -15 -268 5 -251 12 -300 66 -461 63 -188
160 -341 309 -490 168 -167 338 -266 561 -327 93 -26 102 -26 410 -27 309 0
317 0 420 27 482 123 841 498 948 992 25 119 25 516 -1 636 -66 305 -226 555
-477 744 -148 112 -295 180 -490 229 l-85 21 -3010 3 c-2762 2 -3013 1 -3043
-14z"/>
<path d="M281 2412 c-73 -37 -99 -117 -62 -190 43 -84 -120 -76 1731 -82
l1645 -5 54 -23 c230 -98 347 -330 286 -567 -34 -132 -139 -249 -274 -307 -75
-32 -79 -33 -221 -32 -130 0 -154 3 -227 28 -98 32 -195 95 -237 154 -26 37
-31 54 -36 130 -3 48 -11 96 -17 107 -41 72 -137 98 -203 53 -49 -33 -70 -80
-70 -158 0 -214 128 -398 357 -513 190 -97 514 -120 712 -53 245 84 435 285
498 526 23 88 23 282 0 370 -59 225 -237 430 -450 518 -156 65 -63 62 -1839
62 -1516 0 -1615 -1 -1647 -18z"/>
<path d="M281 1902 c-99 -50 -106 -186 -12 -245 l36 -22 813 -3 c523 -1 827 1
851 8 20 5 50 23 66 40 23 24 30 41 33 88 4 52 1 61 -23 90 -55 66 -3 62 -907
62 -764 0 -825 -1 -857 -18z"/>
</g>
</svg>
